#!OML:ASF H:\LiuWeirdWalks\Patient Classification 1\Patient 1\Session 1\male.ASF
:FULLY-SPECIFIED
:DEGREES
813
root 1.26868 18.1194 13.0371 10.932 1.63066 -20.2464
lowerback 13.8613 -1.69014 -9.64656
upperback 1.35346 -4.17977 -7.38992
thorax -6.23748 -1.86846 -1.67617
lowerneck -23.6034 0.724285 6.63786
upperneck 12.0736 -2.438 7.11539
head 7.62552 -0.0957327 1.01122
rclavicle 6.36111e-015 3.18055e-015
rhumerus -20.7743 -36.7247 7.90621
rradius 37.0867
rwrist -2.4146
rhand -25.9349 -2.30998
rfingers 7.12502
rthumb 0.608641 -32.2889
lclavicle 6.36111e-015 3.18055e-015
lhumerus -24.8516 35.1376 31.8077
lradius 36.2993
lwrist 11.9703
lhand -20.3671 -2.01612
lfingers 7.12502
lthumb 5.98544 27.8793
rfemur 3.59129 -3.51799 35.1112
rtibia 23.818
rfoot 12.6865 -1.90061
rtoes -20.704
lfemur -30.2404 1.54585 6.91507
ltibia 39.8215
lfoot -8.30189 16.4902
ltoes -9.76651
814
root 1.28038 18.1226 13.0933 11.0681 1.88407 -20.475
lowerback 13.9555 -1.75223 -9.76705
upperback 1.38492 -4.29367 -7.47606
thorax -6.25066 -1.92045 -1.6795
lowerneck -23.5002 0.690063 6.61265
upperneck 11.9666 -2.48716 7.28639
head 7.57773 -0.11059 1.06448
rclavicle -2.22639e-014 3.18055e-015
rhumerus -20.8203 -36.6897 8.11627
rradius 36.7895
rwrist -2.7544
rhand -25.8404 -2.15754
rfingers 7.12502
rthumb 0.699895 -32.1361
lclavicle -2.22639e-014 3.18055e-015
lhumerus -24.8765 35.1563 32.118
lradius 36.3013
lwrist 11.9067
lhand -20.3441 -2.05959
lfingers 7.12502
lthumb 6.00762 27.8352
rfemur 3.43924 -3.71284 35.3305
rtibia 23.8576
rfoot 13.4434 -1.74202
rtoes -20.565
lfemur -30.2819 1.21884 7.17655
ltibia 39.8377
lfoot -8.42468 16.7707
ltoes -9.73763
815
root 1.29244 18.1262 13.1489 11.2064 2.13504 -20.6745
lowerback 14.0326 -1.81592 -9.91202
upperback 1.40414 -4.41221 -7.5593
thorax -6.26514 -1.97363 -1.66601
lowerneck -23.3156 0.68038 6.64468
upperneck 11.7956 -2.49617 7.40022
head 7.49308 -0.114755 1.09382
rclavicle 3.18055e-014 4.45278e-014
rhumerus -20.8106 -36.5408 8.23806
rradius 36.5351
rwrist -3.47056
rhand -25.7649 -1.8464
rfingers 7.12502
rthumb 0.77282 -31.8247
lclavicle 3.18055e-014 4.45278e-014
lhumerus -24.9179 35.1353 32.4133
lradius 36.3096
lwrist 11.8874
lhand -20.3339 -2.02777
lfingers 7.12502
lthumb 6.01742 27.8668
rfemur 3.28881 -3.91178 35.5134
rtibia 23.8924
rfoot 14.0978 -1.58955
rtoes -20.8519
lfemur -30.3294 0.861776 7.40943
ltibia 39.8553
lfoot -8.5419 17.0751
ltoes -9.70226
816
root 1.30527 18.1296 13.204 11.3545 2.38283 -20.8773
lowerback 14.0925 -1.8792 -10.0438
upperback 1.44128 -4.52135 -7.61614
thorax -6.24918 -2.02368 -1.63369
lowerneck -23.2606 0.670133 6.64274
upperneck 11.6703 -2.51055 7.50342
head 7.4449 -0.119051 1.12545
rclavicle 1.43125e-014 5.725e-014
rhumerus -20.8409 -36.5094 8.41907
rradius 36.2644
rwrist -3.66104
rhand -25.6686 -1.72416
rfingers 7.12502
rthumb 0.865854 -31.7021
lclavicle 1.43125e-014 5.725e-014
lhumerus -24.9143 35.1887 32.7462
lradius 36.2902
lwrist 11.8796
lhand -20.3323 -1.98507
lfingers 7.12502
lthumb 6.01899 27.9094
rfemur 3.12825 -4.11056 35.6905
rtibia 23.9277
rfoot 14.6939 -1.42317
rtoes -21.269
lfemur -30.3917 0.513787 7.64489
ltibia 39.8785
lfoot -8.65874 17.3733
ltoes -9.68101
817
root 1.31906 18.1327 13.2593 11.4965 2.6358 -21.0761
lowerback 14.1399 -1.9459 -10.1603
upperback 1.45571 -4.63302 -7.66158
thorax -6.25068 -2.07418 -1.59732
lowerneck -23.1083 0.672249 6.66821
upperneck 11.5374 -2.50144 7.58338
head 7.37749 -0.115926 1.14723
rclavicle -5.40694e-014 -1.11319e-013
rhumerus -20.8591 -36.2982 8.53033
rradius 36.0782
rwrist -4.23372
rhand -25.6054 -1.48925
rfingers 7.12502
rthumb 0.926891 -31.467
lclavicle -5.40694e-014 -1.11319e-013
lhumerus -24.9536 35.1861 33.0372
lradius 36.2574
lwrist 11.8587
lhand -20.3001 -1.93437
lfingers 7.12502
lthumb 6.05007 27.9592
rfemur 2.9804 -4.32324 35.8515
rtibia 23.9567
rfoot 15.2793 -1.23124
rtoes -21.6064
lfemur -30.4548 0.168542 7.87522
ltibia 39.9081
lfoot -8.78708 17.6547
ltoes -9.68761
818
root 1.33328 18.1355 13.3139 11.6408 2.87277 -21.2741
lowerback 14.1826 -2.00405 -10.2714
upperback 1.47934 -4.72885 -7.67958
thorax -6.23771 -2.11753 -1.53744
lowerneck -23.0724 0.682081 6.6907
upperneck 11.4653 -2.49291 7.63097
head 7.34856 -0.110618 1.15991
rclavicle -1.27222e-014 -6.36111e-014
rhumerus -20.9217 -36.2255 8.71123
rradius 35.8609
rwrist -4.26044
rhand -25.5246 -1.43652
rfingers 7.12502
rthumb 1.00488 -31.4139
lclavicle -1.27222e-014 -6.36111e-014
lhumerus -24.9586 35.2231 33.3586
lradius 36.2126
lwrist 11.8493
lhand -20.2697 -1.88126
lfingers 7.12502
lthumb 6.0794 28.0115
rfemur 2.83185 -4.5065 36.0038
rtibia 23.9842
rfoot 15.8688 -1.02647
rtoes -21.8351
lfemur -30.5212 -0.145069 8.10434
ltibia 39.9436
lfoot -8.9285 17.9073
ltoes -9.71558
819
root 1.34874 18.1374 13.3684 11.7687 3.1062 -21.4957
lowerback 14.2175 -2.05852 -10.3325
upperback 1.49465 -4.81099 -7.67771
thorax -6.2318 -2.15508 -1.48607
lowerneck -22.9922 0.686794 6.70501
upperneck 11.3833 -2.48243 7.6751
head 7.30908 -0.106722 1.17251
rclavicle 1.74931e-014 3.81667e-014
rhumerus -20.99 -36.1427 8.89445
rradius 35.6369
rwrist -4.20753
rhand -25.4422 -1.40321
rfingers 7.12502
rthumb 1.08452 -31.3802
lclavicle 1.74931e-014 3.81667e-014
lhumerus -24.9748 35.2041 33.665
lradius 36.1748
lwrist 11.8476
lhand -20.2423 -1.83414
lfingers 7.12502
lthumb 6.10588 28.0579
rfemur 2.70333 -4.68153 36.1661
rtibia 24.0109
rfoot 16.4577 -0.78945
rtoes -21.9107
lfemur -30.5723 -0.427224 8.35681
ltibia 39.9814
lfoot -9.0894 18.1175
ltoes -9.75935
820
root 1.36502 18.1391 13.422 11.8967 3.31731 -21.7164
lowerback 14.2361 -2.10472 -10.3757
upperback 1.49159 -4.87905 -7.66628
thorax -6.23781 -2.18555 -1.43722
lowerneck -22.8773 0.690604 6.72656
upperneck 11.323 -2.47301 7.71534
head 7.27119 -0.103086 1.1824
rclavicle -3.18055e-014 -9.54166e-015
rhumerus -21.0563 -36.0364 9.06168
rradius 35.4072
rwrist -4.1489
rhand -25.3726 -1.38475
rfingers 7.12502
rthumb 1.15175 -31.3614
lclavicle -3.18055e-014 -9.54166e-015
lhumerus -25.0024 35.1559 33.9331
lradius 36.139
lwrist 11.7898
lhand -20.1898 -1.8233
lfingers 7.12502
lthumb 6.15654 28.0672
rfemur 2.56917 -4.814 36.3164
rtibia 24.0505
rfoot 17.0342 -0.530757
rtoes -22.0158
lfemur -30.6161 -0.665029 8.60527
ltibia 40.0146
lfoot -9.26458 18.2868
ltoes -9.7927
821
root 1.38258 18.141 13.4754 12.0111 3.50141 -21.9062
lowerback 14.2538 -2.14077 -10.4256
upperback 1.49456 -4.93381 -7.65155
thorax -6.23636 -2.20981 -1.38371
lowerneck -22.7913 0.700748 6.76982
upperneck 11.2553 -2.45839 7.72334
head 7.23447 -0.098912 1.17902
rclavicle 4.29375e-014 8.26944e-014
rhumerus -21.1237 -36.0087 9.24286
rradius 35.1371
rwrist -3.84668
rhand -25.2904 -1.43506
rfingers 7.12502
rthumb 1.2311 -31.4113
lclavicle 4.29375e-014 8.26944e-014
lhumerus -25.0046 35.1052 34.1854
lradius 36.1107
lwrist 11.7162
lhand -20.1307 -1.81351
lfingers 7.12502
lthumb 6.21362 28.0754
rfemur 2.44856 -4.91121 36.4153
rtibia 24.1056
rfoot 17.5829 -0.247016
rtoes -22.1185
lfemur -30.6303 -0.863892 8.8102
ltibia 40.0383
lfoot -9.45372 18.4153
ltoes -9.82417
822
root 1.40109 18.1432 13.5277 12.1168 3.66165 -22.0725
lowerback 14.2675 -2.16895 -10.4759
upperback 1.50106 -4.97717 -7.63438
thorax -6.22892 -2.22892 -1.32961
lowerneck -22.7129 0.715944 6.82442
upperneck 11.1683 -2.43636 7.71456
head 7.19193 -0.0932076 1.16917
rclavicle 3.33958e-014 2.8625e-014
rhumerus -21.2041 -36.048 9.43001
rradius 34.8395
rwrist -3.33495
rhand -25.2125 -1.56875
rfingers 7.12502
rthumb 1.30629 -31.5445
lclavicle 3.33958e-014 2.8625e-014
lhumerus -24.9809 35.0574 34.4093
lradius 36.0919
lwrist 11.6245
lhand -20.0669 -1.8408
lfingers 7.12502
lthumb 6.27526 28.0462
rfemur 2.32477 -4.95917 36.4782
rtibia 24.185
rfoot 18.1024 0.0567315
rtoes -22.1884
lfemur -30.6245 -1.01911 8.9813
ltibia 40.0483
lfoot -9.64862 18.4972
ltoes -9.85088
823
root 1.42098 18.1459 13.5799 12.2093 3.79282 -22.1894
lowerback 14.2823 -2.19278 -10.5536
upperback 1.51372 -5.01865 -7.62097
thorax -6.21352 -2.24687 -1.2652
lowerneck -22.6383 0.750392 6.92555
upperneck 11.0336 -2.38938 7.65361
head 7.13232 -0.0810351 1.13764
rclavicle 2.06736e-014 2.8625e-014
rhumerus -21.2378 -36.1184 9.56869
rradius 34.5204
rwrist -2.83529
rhand -25.1412 -1.68103
rfingers 7.12502
rthumb 1.37518 -31.6563
lclavicle 2.06736e-014 2.8625e-014
lhumerus -24.9405 35.0469 34.5863
lradius 36.0757
lwrist 11.5108
lhand -20.021 -1.85869
lfingers 7.12502
lthumb 6.31957 28.027
rfemur 2.20949 -4.97555 36.4696
rtibia 24.2943
rfoot 18.5779 0.409117
rtoes -22.2597
lfemur -30.5862 -1.1368 9.08492
ltibia 40.0437
lfoot -9.85392 18.5376
ltoes -9.86801
